<?xml version="1.0" encoding="UTF-8" standalone="no"?>
<svg
   viewBox="0 0 142 142"
   height="142"
   width="142"
   xml:space="preserve"
   id="svg2"
   version="1.1"
   sodipodi:docname="ef_icon_welcome_white.svg"
   inkscape:version="1.2-alpha1 (ddb812e, 2022-04-07)"
   xmlns:inkscape="http://www.inkscape.org/namespaces/inkscape"
   xmlns:sodipodi="http://sodipodi.sourceforge.net/DTD/sodipodi-0.dtd"
   xmlns="http://www.w3.org/2000/svg"
   xmlns:svg="http://www.w3.org/2000/svg"
   xmlns:rdf="http://www.w3.org/1999/02/22-rdf-syntax-ns#"
   xmlns:cc="http://creativecommons.org/ns#"
   xmlns:dc="http://purl.org/dc/elements/1.1/"><sodipodi:namedview
     id="namedview18"
     pagecolor="#505050"
     bordercolor="#ffffff"
     borderopacity="1"
     inkscape:pageshadow="0"
     inkscape:pageopacity="0"
     inkscape:pagecheckerboard="1"
     inkscape:deskcolor="#505050"
     showgrid="false"
     inkscape:zoom="5.3737351"
     inkscape:cx="85.601539"
     inkscape:cy="80.577101"
     inkscape:window-width="1695"
     inkscape:window-height="1160"
     inkscape:window-x="3425"
     inkscape:window-y="0"
     inkscape:window-maximized="0"
     inkscape:current-layer="svg2" /><metadata
     id="metadata8"><rdf:RDF><cc:Work
         rdf:about=""><dc:format>image/svg+xml</dc:format><dc:type
           rdf:resource="http://purl.org/dc/dcmitype/StillImage" /></cc:Work></rdf:RDF></metadata><defs
     id="defs6"><clipPath
       id="clipPath18"
       clipPathUnits="userSpaceOnUse"><path
         id="path16"
         d="M 0,1152 H 2048 V 0 H 0 Z" /></clipPath></defs><g
     transform="matrix(0.19037098,0,0,-0.19037098,-123.93983,180.65376)"
     id="g10"><g
       id="g12"><g
         clip-path="url(#clipPath18)"
         id="g14"><g
           transform="translate(1367.6427,721.1754)"
           id="g20"><path
             id="path22"
             style="fill:#ffffff;fill-opacity:1;fill-rule:nonzero;stroke:none"
             d="M -343.64298 227.781 C -393.98593 227.781 -442.82899 217.91938 -488.81594 198.4694 C -533.2289 179.68442 -573.11734 152.79529 -607.36531 118.54733 C -641.61228 84.300359 -668.5034 44.409913 -687.28738 -0.0020428528 C -706.73837 -45.988997 -716.59899 -94.831054 -716.59899 -145.175 C -716.59899 -195.51895 -706.73837 -244.36101 -687.28738 -290.34796 C -668.5034 -334.76092 -641.61228 -374.64837 -607.36531 -408.89733 C -573.11734 -443.1443 -533.2289 -470.03443 -488.81594 -488.81941 C -442.82899 -508.27039 -393.98593 -518.13101 -343.64298 -518.13101 C -293.29903 -518.13101 -244.45697 -508.27039 -198.47002 -488.81941 C -154.05807 -470.03443 -114.16862 -443.1443 -79.920653 -408.89733 C -45.672687 -374.64837 -18.783559 -334.76092 0.001422413 -290.34796 C 19.452403 -244.36101 29.313023 -195.51895 29.313023 -145.175 C 29.313023 -94.831054 19.452403 -45.988997 0.001422413 -0.0020428528 C -18.783559 44.409913 -45.672687 84.300359 -79.920653 118.54733 C -114.16862 152.79529 -154.05807 179.68442 -198.47002 198.4694 C -244.45697 217.91938 -293.29903 227.781 -343.64298 227.781 z M -180.19772 103.32212 C -166.26673 103.66312 -153.82528 96.326814 -140.8933 92.282818 C -127.76231 88.176822 -113.27906 85.948494 -99.660071 84.167495 C -100.70907 84.304495 -103.8283 81.811593 -104.7283 81.325594 C -109.1333 78.952596 -113.63435 76.759609 -118.16834 74.646612 C -127.98333 70.071616 -139.45744 67.806538 -147.73643 60.375545 C -158.58542 50.639555 -161.15782 32.923832 -153.52283 20.506844 C -149.95083 14.69685 -144.62222 10.231305 -139.74422 5.4663097 C -138.52223 4.2723108 -137.32237 3.0539004 -136.15337 1.8139016 C -113.2894 -22.441074 -100.64499 -55.324048 -100.64499 -88.655015 C -100.64499 -120.50598 -112.54515 -151.48455 -132.94213 -175.47152 L -118.19912 -91.17887 L -163.42332 -91.17887 L -173.51874 -147.31925 C -174.46274 -152.57025 -176.12111 -156.57622 -178.47411 -159.33321 C -180.83211 -162.09421 -183.555 -163.46782 -186.65099 -163.46782 C -189.88099 -163.46782 -192.23984 -162.62897 -193.71984 -160.94397 C -195.20284 -159.26197 -195.93591 -157.07184 -195.93591 -154.37784 C -195.93591 -153.56984 -195.90331 -152.52867 -195.83331 -151.24867 C -195.76631 -149.97067 -195.60159 -148.72618 -195.33059 -147.51419 L -185.44036 -91.17887 L -230.86975 -91.17887 L -241.97061 -154.99341 C -242.37461 -157.14741 -242.68171 -159.40048 -242.88371 -161.75447 C -243.08671 -164.11147 -243.18124 -166.36353 -243.18124 -168.51553 C -243.18124 -172.55453 -242.61289 -176.46497 -241.46789 -180.23196 C -240.32589 -184.00196 -238.43986 -187.33179 -235.81487 -190.22479 C -233.18987 -193.12179 -229.82744 -195.44304 -225.71945 -197.19104 C -221.61445 -198.93804 -216.60491 -199.81749 -210.67891 -199.81749 C -203.94992 -199.81749 -197.78842 -198.19471 -192.20142 -194.96471 C -186.61643 -191.73372 -182.27076 -187.96866 -179.17176 -183.65866 L -178.37152 -183.65866 C -178.64252 -185.54566 -178.90376 -187.80498 -179.17176 -190.42998 C -179.44376 -193.05598 -179.65434 -195.37723 -179.78734 -197.39623 L -156.72382 -197.39623 C -158.85582 -198.92323 -161.03943 -200.38733 -163.26943 -201.78733 C -177.98641 -211.02032 -194.33263 -217.29318 -210.62761 -223.32217 C -265.06356 -243.46215 -320.30377 -259.93537 -377.38672 -270.68036 C -368.29073 -267.87836 -363.26648 -256.87259 -367.21948 -248.1606 C -370.31848 -241.33061 -378.66573 -237.27702 -385.96372 -238.96802 C -391.95671 -240.35702 -396.47941 -245.23277 -401.16841 -248.87877 C -410.4804 -256.12076 -420.33991 -262.66226 -430.6339 -268.42326 C -435.7809 -271.30425 -441.03335 -273.99202 -446.38235 -276.47702 C -451.66134 -278.93002 -456.88466 -281.3374 -462.52066 -282.7764 C -462.52666 -282.7774 -462.67733 -282.80418 -462.70533 -282.80718 C -462.67533 -282.78318 -462.64299 -282.76036 -462.61299 -282.73536 C -457.553 -278.63036 -453.82319 -272.96812 -452.10719 -266.67913 C -447.24119 -248.83915 -459.83817 -229.0496 -478.58715 -227.5286 C -485.36514 -226.9786 -492.1347 -228.39071 -498.72669 -230.06271 C -524.63666 -236.63571 -549.46618 -247.37713 -572.10316 -261.58012 C -594.84613 -275.85011 -615.36266 -293.62397 -632.63464 -314.18095 C -633.13364 -314.77495 -634.10161 -314.50779 -634.21461 -313.73979 C -638.17861 -286.90782 -637.82773 -259.47443 -633.27073 -232.74046 C -628.44974 -204.45349 -618.95871 -176.9434 -605.12872 -151.79243 C -591.26774 -126.58545 -573.04255 -103.70861 -551.64557 -84.489628 C -517.1876 -53.538659 -474.48958 -32.20012 -429.00263 -23.404129 C -372.77569 -12.53114 -312.21072 -20.466979 -261.69977 -47.862952 C -248.18078 -55.195944 -235.22027 -63.991026 -220.45629 -68.300021 C -205.6923 -72.610017 -188.15824 -71.545897 -177.01725 -60.943908 C -167.93226 -52.299916 -164.77631 -38.885133 -165.55731 -26.369146 C -166.60631 -9.5561627 -174.17822 6.7701622 -186.34321 18.424151 C -195.1712 26.881142 -206.4148 33.106741 -212.9668 43.42673 C -228.68078 68.182706 -209.09769 102.61412 -180.19772 103.32212 z M -500.02966 -87.947104 C -509.85765 -87.947104 -518.84882 -89.595222 -526.99181 -92.892218 C -535.13781 -96.192215 -542.13717 -100.7412 -547.99316 -106.52719 C -553.84815 -112.31719 -558.38588 -119.15083 -561.61787 -127.02582 C -564.84787 -134.90081 -566.46039 -143.34897 -566.46039 -152.36696 C -566.46039 -160.44396 -564.98099 -167.47165 -562.018 -173.46065 C -559.059 -179.45164 -555.05203 -184.47344 -550.00404 -188.51144 C -544.95604 -192.54944 -539.03345 -195.57116 -532.23446 -197.59116 C -525.43846 -199.61016 -518.27038 -200.628 -510.73039 -200.628 C -501.0384 -200.628 -491.68945 -199.20753 -482.67046 -196.38053 C -473.65247 -193.55354 -465.63327 -188.57859 -458.63228 -181.44259 L -489.12373 -160.44125 C -491.68173 -162.86425 -494.58359 -164.64449 -497.81359 -165.78649 C -501.04558 -166.93248 -504.33982 -167.51009 -507.70382 -167.51009 C -509.31881 -167.51009 -511.14191 -167.34537 -513.16191 -167.00738 C -515.17991 -166.67338 -517.06694 -166.05917 -518.81493 -165.18117 C -520.56693 -164.30817 -522.04633 -163.16847 -523.25733 -161.75447 C -524.46933 -160.34047 -525.07327 -158.49404 -525.07327 -156.20404 C -525.07327 -155.66805 -525.00408 -155.19222 -524.86808 -154.78822 L -452.57913 -154.78822 C -451.63813 -151.82923 -450.9284 -148.59492 -450.4554 -145.09293 C -449.9854 -141.59393 -449.75775 -138.36063 -449.75775 -135.39763 C -449.75775 -128.12864 -450.93204 -121.5655 -453.28704 -115.70951 C -455.64304 -109.85351 -458.97287 -104.88057 -463.27986 -100.77157 C -467.58886 -96.667575 -472.83731 -93.501463 -479.02831 -91.281465 C -485.2213 -89.059468 -492.22366 -87.947104 -500.02966 -87.947104 z M -351.81986 -88.75761 C -359.08985 -88.75761 -365.34489 -90.442324 -370.59488 -93.80532 C -375.84487 -97.172317 -379.95663 -100.86818 -382.91663 -104.90618 L -383.72713 -104.90618 C -383.45913 -103.02318 -383.18763 -100.76912 -382.91663 -98.14512 C -382.64763 -95.520122 -382.44731 -93.197868 -382.31131 -91.17887 L -425.92476 -91.17887 C -426.19676 -94.409866 -426.63198 -98.0468 -427.23798 -102.0848 C -427.84298 -106.12379 -428.41433 -109.42003 -428.95133 -111.97502 L -443.89953 -197.39623 L -398.66507 -197.39623 L -388.77484 -141.25585 C -387.69884 -135.60185 -386.07706 -131.50236 -383.92207 -128.94436 C -381.77007 -126.38836 -379.41322 -125.10728 -376.85322 -125.10728 C -374.16322 -125.10728 -372.11147 -126.04566 -370.69748 -127.92866 C -369.28448 -129.81566 -368.584 -132.30163 -368.584 -135.39763 C -368.584 -136.07263 -368.61034 -136.98468 -368.67634 -138.12668 C -368.74634 -139.27168 -368.92232 -140.38604 -369.18932 -141.46104 L -379.07955 -197.39623 L -333.84509 -197.39623 L -323.95486 -141.25585 C -323.01386 -136.27685 -321.49887 -132.34407 -319.40987 -129.44708 C -317.32487 -126.55408 -314.8003 -125.10728 -311.8383 -125.10728 C -306.32031 -125.10728 -303.55883 -128.2022 -303.55883 -134.39219 C -303.55883 -135.20019 -303.59442 -136.24336 -303.66142 -137.52136 C -303.73042 -138.80236 -303.89514 -139.97366 -304.16414 -141.05065 L -314.06463 -197.39623 L -268.62498 -197.39623 L -257.31893 -132.97637 C -257.04993 -131.36137 -256.81302 -129.71625 -256.61102 -128.03126 C -256.41002 -126.34926 -256.31349 -124.56176 -256.31349 -122.67576 C -256.31349 -118.63676 -256.95404 -114.5982 -258.23203 -110.5592 C -259.51303 -106.52021 -261.52719 -102.89453 -264.28518 -99.663537 C -267.04618 -96.43254 -270.61292 -93.803182 -274.98592 -91.784184 C -279.36191 -89.765187 -284.64596 -88.75761 -290.83696 -88.75761 C -298.50895 -88.75761 -304.87177 -90.3092 -309.91976 -93.405197 C -314.96676 -96.503194 -319.24523 -100.19906 -322.74423 -104.50606 C -325.03523 -99.65906 -328.49318 -95.820811 -333.13718 -92.994814 C -337.78217 -90.167817 -344.01387 -88.75761 -351.81986 -88.75761 z M -503.05623 -117.02273 C -498.61523 -117.02273 -495.15528 -118.04961 -492.66328 -120.10061 C -490.17428 -122.1516 -488.9288 -124.88501 -488.9288 -128.29801 L -488.9288 -129.42656 C -488.9288 -129.90656 -488.99073 -130.3503 -489.12373 -130.7603 L -522.44682 -130.7603 C -522.04382 -129.3943 -521.33309 -127.91868 -520.32309 -126.34869 C -519.31309 -124.77669 -517.99941 -123.31333 -516.38341 -121.94733 C -514.76742 -120.58133 -512.85905 -119.41507 -510.63805 -118.45907 C -508.41706 -117.50308 -505.88423 -117.02273 -503.05623 -117.02273 z M -353.7384 -309.82063 C -321.41293 -309.89188 -289.04021 -316.02466 -258.45775 -328.31864 C -257.07575 -328.87464 -257.10378 -330.84474 -258.49878 -331.36574 C -280.20076 -339.47373 -302.94854 -344.71011 -325.99652 -347.03211 C -330.59751 -347.49511 -335.21868 -347.83732 -339.83668 -348.06832 C -365.53565 -349.35632 -391.4212 -347.03329 -416.45517 -341.07129 C -422.54717 -339.61929 -428.57907 -337.94562 -434.55306 -336.06462 C -437.67806 -335.08062 -440.79201 -334.03345 -443.87901 -332.93545 C -444.66601 -332.65545 -446.76309 -331.58886 -448.78309 -330.69887 C -450.10809 -330.11587 -450.06653 -328.22181 -448.72153 -327.69281 C -418.34206 -315.74082 -386.06387 -309.74938 -353.7384 -309.82063 z " /></g><g
           transform="translate(874.9806,601.0728)"
           id="g24" /><g
           transform="translate(1111.0304,593.1441)"
           id="g28" /><g
           transform="translate(1109.1837,392.8531)"
           id="g32" /></g></g></g></svg>
