<?xml version="1.0" encoding="UTF-8" standalone="no"?>
<svg
   viewBox="0 0 142 142"
   height="142"
   width="142"
   xml:space="preserve"
   id="svg2"
   version="1.1"
   sodipodi:docname="ef_icon_welcome.svg"
   inkscape:version="1.2-alpha1 (ddb812e, 2022-04-07)"
   xmlns:inkscape="http://www.inkscape.org/namespaces/inkscape"
   xmlns:sodipodi="http://sodipodi.sourceforge.net/DTD/sodipodi-0.dtd"
   xmlns="http://www.w3.org/2000/svg"
   xmlns:svg="http://www.w3.org/2000/svg"
   xmlns:rdf="http://www.w3.org/1999/02/22-rdf-syntax-ns#"
   xmlns:cc="http://creativecommons.org/ns#"
   xmlns:dc="http://purl.org/dc/elements/1.1/"><sodipodi:namedview
     id="namedview18"
     pagecolor="#505050"
     bordercolor="#ffffff"
     borderopacity="1"
     inkscape:pageshadow="0"
     inkscape:pageopacity="0"
     inkscape:pagecheckerboard="1"
     inkscape:deskcolor="#505050"
     showgrid="false"
     inkscape:zoom="0.47497557"
     inkscape:cx="497.92034"
     inkscape:cy="496.86766"
     inkscape:window-width="2560"
     inkscape:window-height="1412"
     inkscape:window-x="2560"
     inkscape:window-y="0"
     inkscape:window-maximized="1"
     inkscape:current-layer="svg2" /><metadata
     id="metadata8"><rdf:RDF><cc:Work
         rdf:about=""><dc:format>image/svg+xml</dc:format><dc:type
           rdf:resource="http://purl.org/dc/dcmitype/StillImage" /></cc:Work></rdf:RDF></metadata><defs
     id="defs6"><clipPath
       id="clipPath18"
       clipPathUnits="userSpaceOnUse"><path
         id="path16"
         d="M 0,1152 H 2048 V 0 H 0 Z" /></clipPath></defs><g
     transform="matrix(0.19037098,0,0,-0.19037098,-123.93983,180.65376)"
     id="g10"><g
       id="g12"><g
         clip-path="url(#clipPath18)"
         id="g14"><g
           transform="translate(1367.6427,721.1754)"
           id="g20"><path
             id="path22"
             style="fill:#00aeef;fill-opacity:1;fill-rule:nonzero;stroke:none"
             d="m 0,0 c -18.785,44.412 -45.675,84.297 -79.923,118.544 -34.248,34.248 -74.133,61.139 -118.545,79.924 -45.987,19.45 -94.831,29.313 -145.175,29.313 -50.343,0 -99.187,-9.863 -145.174,-29.313 -44.413,-18.785 -84.298,-45.676 -118.546,-79.924 C -641.61,84.297 -668.501,44.412 -687.285,0 c -19.451,-45.987 -29.314,-94.831 -29.314,-145.175 0,-50.344 9.863,-99.188 29.314,-145.175 18.784,-44.413 45.675,-84.297 79.922,-118.546 34.248,-34.247 74.133,-61.137 118.546,-79.922 45.987,-19.451 94.831,-29.313 145.174,-29.313 50.344,0 99.188,9.862 145.175,29.313 44.412,18.785 84.297,45.675 118.545,79.922 34.248,34.249 61.138,74.133 79.923,118.546 19.451,45.987 29.313,94.831 29.313,145.175 C 29.313,-94.831 19.451,-45.987 0,0" /></g><g
           transform="translate(874.9806,601.0728)"
           id="g24"><path
             id="path26"
             style="fill:#ffffff;fill-opacity:1;fill-rule:nonzero;stroke:none"
             d="m 0,0 c -2.492,2.051 -5.957,3.077 -10.398,3.077 -2.828,0 -5.352,-0.48 -7.573,-1.436 -2.221,-0.956 -4.139,-2.117 -5.755,-3.483 -1.616,-1.366 -2.927,-2.833 -3.937,-4.405 -1.01,-1.57 -1.717,-3.041 -2.12,-4.407 H 3.534 c 0.133,0.41 0.202,0.851 0.202,1.331 v 1.127 C 3.736,-4.783 2.489,-2.051 0,0" /></g><g
           transform="translate(1111.0304,593.1441)"
           id="g28"><path
             id="path30"
             style="fill:#ffffff;fill-opacity:1;fill-rule:nonzero;stroke:none"
             d="M 0,0 C -0.202,-1.685 -0.439,-3.332 -0.708,-4.947 L -12.015,-69.36 h -45.433 l 9.894,56.336 c 0.269,1.077 0.436,2.253 0.505,3.534 0.067,1.278 0.101,2.322 0.101,3.13 0,6.19 -2.761,9.288 -8.279,9.288 -2.962,0 -5.487,-1.448 -7.572,-4.341 -2.089,-2.897 -3.603,-6.834 -4.544,-11.813 l -9.894,-56.134 h -45.231 l 9.895,55.933 c 0.267,1.075 0.435,2.186 0.505,3.331 0.066,1.142 0.1,2.051 0.1,2.726 0,3.096 -0.707,5.585 -2.12,7.472 -1.414,1.883 -3.468,2.826 -6.158,2.826 -2.56,0 -4.916,-1.281 -7.068,-3.837 -2.155,-2.558 -3.77,-6.663 -4.846,-12.317 l -9.895,-56.134 h -45.23 l 14.941,85.414 c 0.537,2.555 1.112,5.855 1.717,9.894 0.606,4.038 1.041,7.673 1.313,10.904 h 43.616 c -0.136,-2.019 -0.338,-4.342 -0.607,-6.967 -0.271,-2.624 -0.539,-4.881 -0.807,-6.764 h 0.807 c 2.96,4.038 7.068,7.739 12.318,11.106 5.25,3.363 11.509,5.047 18.779,5.047 7.806,0 14.033,-1.413 18.678,-4.24 4.644,-2.826 8.108,-6.663 10.399,-11.51 3.499,4.307 7.775,8.008 12.822,11.106 5.048,3.096 11.409,4.644 19.081,4.644 6.191,0 11.476,-1.009 15.852,-3.028 4.373,-2.019 7.941,-4.644 10.702,-7.875 2.758,-3.231 4.777,-6.865 6.058,-10.904 C -0.338,13.428 0.303,9.39 0.303,5.351 0.303,3.465 0.201,1.682 0,0 m -193.847,-17.062 c -0.473,-3.502 -1.18,-6.733 -2.121,-9.692 h -72.288 c -0.136,-0.404 -0.202,-0.878 -0.202,-1.414 0,-2.29 0.605,-4.139 1.817,-5.553 1.211,-1.414 2.691,-2.559 4.443,-3.432 1.748,-0.878 3.635,-1.484 5.653,-1.818 2.02,-0.338 3.837,-0.505 5.452,-0.505 3.364,0 6.663,0.571 9.895,1.717 3.23,1.142 6.124,2.927 8.682,5.35 l 30.491,-21 c -7.001,-7.136 -15.012,-12.115 -24.03,-14.942 -9.019,-2.827 -18.375,-4.241 -28.067,-4.241 -7.54,0 -14.709,1.01 -21.505,3.029 -6.799,2.02 -12.721,5.049 -17.769,9.087 -5.048,4.038 -9.055,9.052 -12.014,15.043 -2.963,5.989 -4.443,13.024 -4.443,21.101 0,9.018 1.616,17.467 4.846,25.342 3.232,7.875 7.775,14.706 13.63,20.496 5.856,5.786 12.855,10.329 21.001,13.629 8.143,3.297 17.128,4.948 26.956,4.948 7.806,0 14.807,-1.111 21,-3.333 6.191,-2.22 11.441,-5.385 15.75,-9.489 4.307,-4.109 7.639,-9.087 9.995,-14.943 2.355,-5.856 3.534,-12.419 3.534,-19.688 0,-2.963 -0.236,-6.193 -0.706,-9.692 M 108.874,188.41 c 8.279,7.431 19.759,9.697 29.574,14.272 4.534,2.113 9.03,4.304 13.435,6.677 0.9,0.486 4.019,2.972 5.068,2.835 -13.619,1.781 -28.098,4.015 -41.229,8.121 -12.932,4.044 -25.377,11.38 -39.308,11.039 -28.9,-0.708 -48.48,-35.136 -32.766,-59.892 C 50.2,161.142 61.44,154.913 70.268,146.456 82.433,134.802 90.01,118.479 91.059,101.666 91.84,89.15 88.677,75.733 79.592,67.089 68.451,56.487 50.925,55.426 36.161,59.736 21.397,64.045 8.432,72.831 -5.087,80.164 c -50.511,27.396 -111.08,35.333 -167.307,24.46 -45.487,-8.796 -88.179,-30.136 -122.637,-61.087 -21.397,-19.219 -39.629,-42.095 -53.49,-67.302 -13.83,-25.151 -23.313,-52.658 -28.134,-80.945 -4.557,-26.734 -4.914,-54.167 -0.95,-80.999 0.113,-0.768 1.082,-1.035 1.581,-0.441 17.272,20.557 37.789,38.329 60.532,52.599 22.637,14.203 47.463,24.943 73.373,31.516 6.592,1.672 13.368,3.09 20.146,2.54 18.749,-1.521 31.339,-21.311 26.473,-39.151 -1.716,-6.289 -5.436,-11.955 -10.496,-16.06 -0.03,-0.025 -0.062,-0.048 -0.092,-0.072 0.028,0.003 0.176,0.034 0.182,0.035 5.636,1.439 10.856,3.849 16.135,6.302 5.349,2.485 10.604,5.172 15.751,8.053 10.294,5.761 20.156,12.296 29.468,19.538 4.689,3.646 9.203,8.525 15.196,9.914 7.298,1.691 15.651,-2.359 18.75,-9.189 3.953,-8.712 -1.071,-19.719 -10.167,-22.521 57.083,10.745 112.32,27.215 166.756,47.355 16.295,6.029 32.642,12.304 47.359,21.537 2.23,1.4 4.41,2.867 6.542,4.394 H 76.83 c 0.133,2.019 0.334,4.34 0.606,6.966 0.268,2.625 0.536,4.877 0.807,6.764 h -0.807 c -3.099,-4.31 -7.44,-8.077 -13.025,-11.308 -5.587,-3.23 -11.746,-4.846 -18.475,-4.846 -5.926,0 -10.939,0.878 -15.044,2.625 -4.108,1.748 -7.471,4.07 -10.096,6.967 -2.625,2.893 -4.512,6.225 -5.654,9.995 -1.145,3.767 -1.716,7.673 -1.716,11.712 0,2.152 0.1,4.407 0.303,6.764 0.202,2.354 0.504,4.61 0.908,6.764 l 11.106,63.809 h 45.433 l -9.894,-56.337 c -0.271,-1.212 -0.438,-2.458 -0.505,-3.736 -0.07,-1.28 -0.101,-2.322 -0.101,-3.13 0,-2.694 0.738,-4.88 2.221,-6.562 1.48,-1.685 3.837,-2.525 7.067,-2.525 3.096,0 5.821,1.379 8.179,4.14 2.353,2.757 4.003,6.764 4.947,12.015 l 10.096,56.135 h 45.231 L 123.67,-47.442 c 20.397,23.987 32.301,54.968 32.301,86.819 0,33.331 -12.652,66.214 -35.516,90.469 -1.169,1.24 -2.364,2.457 -3.586,3.651 -4.878,4.765 -10.208,9.23 -13.78,15.04 -7.635,12.417 -5.064,30.137 5.785,39.873" /></g><g
           transform="translate(1109.1837,392.8531)"
           id="g32"><path
             id="path34"
             style="fill:#6dcff6;fill-opacity:1;fill-rule:nonzero;stroke:none"
             d="m 0,0 c -61.165,24.588 -129.505,24.531 -190.264,0.627 -1.345,-0.529 -1.382,-2.423 -0.057,-3.006 2.02,-0.89 4.119,-1.959 4.906,-2.239 3.087,-1.098 6.195,-2.14 9.32,-3.124 5.974,-1.881 12.011,-3.551 18.103,-5.003 25.034,-5.962 50.92,-8.291 76.619,-7.003 4.618,0.231 9.23,0.579 13.831,1.042 23.048,2.322 45.804,7.553 67.506,15.661 C 1.359,-2.524 1.382,-0.556 0,0" /></g></g></g></g></svg>
